<svg xmlns="http://www.w3.org/2000/svg" width="168.51" height="35" viewBox="0 0 168.51 35"><rect class="svg__rect" x="0" y="0" width="91.18" height="35" fill="#B3293F"/><rect class="svg__rect" x="89.18" y="0" width="79.32999999999998" height="35" fill="#B67B7A"/><path class="svg__text" d="M15.70 22L14.22 22L14.22 13.47L15.70 13.47L15.70 17.02L19.51 17.02L19.51 13.47L20.99 13.47L20.99 22L19.51 22L19.51 18.21L15.70 18.21L15.70 22ZM27.30 22L25.82 22L25.82 13.47L27.30 13.47L27.30 22ZM33.59 22L32.11 22L32.11 13.47L35.11 13.47Q36.58 13.47 37.39 14.13Q38.19 14.79 38.19 16.05L38.19 16.05Q38.19 16.90 37.77 17.48Q37.36 18.06 36.62 18.37L36.62 18.37L38.54 21.92L38.54 22L36.95 22L35.24 18.71L33.59 18.71L33.59 22ZM33.59 14.66L33.59 17.52L35.11 17.52Q35.86 17.52 36.28 17.15Q36.71 16.77 36.71 16.11L36.71 16.11Q36.71 15.43 36.32 15.05Q35.93 14.68 35.15 14.66L35.15 14.66L33.59 14.66ZM48.16 22L42.58 22L42.58 13.47L48.12 13.47L48.12 14.66L44.06 14.66L44.06 17.02L47.57 17.02L47.57 18.19L44.06 18.19L44.06 20.82L48.16 20.82L48.16 22ZM59.81 22L58.33 22L58.33 13.47L60.25 13.47L62.72 20.01L65.17 13.47L67.09 13.47L67.09 22L65.61 22L65.61 19.19L65.76 15.43L63.24 22L62.18 22L59.66 15.43L59.81 19.19L59.81 22ZM77.40 22L71.83 22L71.83 13.47L77.36 13.47L77.36 14.66L73.31 14.66L73.31 17.02L76.81 17.02L76.81 18.19L73.31 18.19L73.31 20.82L77.40 20.82L77.40 22Z" fill="#FFFFFF"/><path class="svg__text" d="M110.11 22L103.37 22L103.37 13.60L109.96 13.60L109.96 15.44L105.72 15.44L105.72 16.85L109.46 16.85L109.46 18.63L105.72 18.63L105.72 20.17L110.11 20.17L110.11 22ZM117.11 22L114.92 22L114.92 13.60L116.87 13.60L119.83 18.45L122.71 13.60L124.66 13.60L124.68 22L122.50 22L122.48 17.55L120.32 21.17L119.26 21.17L117.11 17.67L117.11 22ZM131.26 22L128.84 22L132.55 13.60L134.89 13.60L138.61 22L136.14 22L135.48 20.37L131.93 20.37L131.26 22ZM133.70 15.93L132.62 18.61L134.78 18.61L133.70 15.93ZM145.14 22L142.76 22L142.76 13.60L145.14 13.60L145.14 22ZM156.70 22L150.31 22L150.31 13.60L152.69 13.60L152.69 20.11L156.70 20.11L156.70 22Z" fill="#FFFFFF" x="102.18"/></svg>